<svg width="17.000000" height="20.000000" viewBox="0 0 17 20" fill="none" xmlns="http://www.w3.org/2000/svg" xmlns:xlink="http://www.w3.org/1999/xlink">
	<desc>
			Created with Pixso.
	</desc>
	<defs/>
	<path id="SHOP" d="M13.35 5C13.35 2.24 11.17 0 8.5 0C5.82 0 3.64 2.24 3.64 5L0 5L0 16.87C0 18.6 1.35 20 3.03 20L13.96 20C15.64 20 17 18.6 17 16.87L17 5L13.35 5ZM8.5 1.25C10.5 1.25 12.14 2.93 12.14 5L4.85 5C4.85 2.93 6.49 1.25 8.5 1.25ZM15.78 16.87C15.78 17.9 14.96 18.75 13.96 18.75L3.03 18.75C2.03 18.75 1.21 17.9 1.21 16.87L1.21 6.25L3.64 6.25L3.64 8.12C3.64 8.47 3.91 8.75 4.25 8.75C4.58 8.75 4.85 8.47 4.85 8.12L4.85 6.25L12.14 6.25L12.14 8.12C12.14 8.47 12.41 8.75 12.75 8.75C13.08 8.75 13.35 8.47 13.35 8.12L13.35 6.25L15.78 6.25L15.78 16.87Z" fill="#FFFFFF" fill-opacity="1.000000" fill-rule="nonzero"/>
</svg>
