<svg width="16.000000" height="15.000000" viewBox="0 0 16 15" fill="none" xmlns="http://www.w3.org/2000/svg" xmlns:xlink="http://www.w3.org/1999/xlink">
	<desc>
			Created with Pixso.
	</desc>
	<defs/>
	<path id="Vector" d="M13.75 7.5L13.25 7.5C13.18 7.5 13.12 7.52 13.07 7.56C13.02 7.61 13 7.67 13 7.73L13 13.59C13 13.71 12.94 13.83 12.85 13.92C12.75 14.01 12.63 14.06 12.5 14.06L1.5 14.06C1.36 14.06 1.24 14.01 1.14 13.92C1.05 13.83 1 13.71 1 13.59L1 3.28C1 3.15 1.05 3.03 1.14 2.94C1.24 2.86 1.36 2.81 1.5 2.81L7.75 2.81C7.81 2.81 7.87 2.78 7.92 2.74C7.97 2.69 8 2.64 8 2.57L8 2.1C8 2.04 7.97 1.98 7.92 1.94C7.87 1.89 7.81 1.87 7.75 1.87L1.5 1.87C1.1 1.87 0.72 2.02 0.43 2.28C0.15 2.55 0 2.9 0 3.28L0 13.59C0 13.96 0.15 14.32 0.43 14.58C0.72 14.85 1.1 15 1.5 15L12.5 15C12.89 15 13.27 14.85 13.56 14.58C13.84 14.32 14 13.96 14 13.59L14 7.73C14 7.67 13.97 7.61 13.92 7.56C13.87 7.52 13.81 7.5 13.75 7.5ZM15.62 0L11.37 0C11.27 0 11.18 0.04 11.1 0.11C11.03 0.17 11 0.26 11 0.36L11 0.65C11 0.74 11.03 0.83 11.1 0.9C11.18 0.96 11.27 1 11.37 1L14.18 0.99L14.2 1.01L4.1 10.48C4.07 10.51 4.04 10.55 4.02 10.59C4 10.64 3.99 10.68 3.99 10.73C3.99 10.77 4 10.82 4.02 10.86C4.04 10.91 4.07 10.94 4.1 10.98L4.28 11.14C4.32 11.18 4.36 11.2 4.4 11.22C4.45 11.24 4.5 11.25 4.55 11.25C4.6 11.25 4.65 11.24 4.69 11.22C4.74 11.2 4.78 11.18 4.81 11.14L14.91 1.67L14.93 1.7L14.92 4.33C14.92 4.43 14.96 4.51 15.03 4.58C15.1 4.65 15.2 4.68 15.3 4.68L15.61 4.68C15.71 4.68 15.8 4.65 15.87 4.58C15.94 4.51 15.98 4.43 15.98 4.33L16 0.35C16 0.25 15.96 0.16 15.89 0.1C15.81 0.03 15.72 0 15.62 0Z" fill="#171718" fill-opacity="1.000000" fill-rule="nonzero"/>
</svg>
