<svg width="20.000000" height="20.000000" viewBox="0 0 20 20" fill="none" xmlns="http://www.w3.org/2000/svg" xmlns:xlink="http://www.w3.org/1999/xlink">
	<desc>
			Created with Pixso.
	</desc>
	<defs/>
	<path id="SEARCH" d="M19.86 18.81L14.82 13.77C14.73 13.68 14.61 13.63 14.49 13.63L14.08 13.63C15.42 12.18 16.24 10.25 16.24 8.12C16.24 3.63 12.61 0 8.12 0C3.63 0 0 3.63 0 8.12C0 12.61 3.63 16.24 8.12 16.24C10.25 16.24 12.18 15.42 13.63 14.09L13.63 14.49C13.63 14.61 13.68 14.73 13.77 14.82L18.81 19.86C18.99 20.04 19.29 20.04 19.47 19.86L19.86 19.47C20.04 19.29 20.04 18.99 19.86 18.81ZM8.12 14.99C4.32 14.99 1.24 11.92 1.24 8.12C1.24 4.32 4.32 1.24 8.12 1.24C11.92 1.24 14.99 4.32 14.99 8.12C14.99 11.92 11.92 14.99 8.12 14.99Z" fill="#FFFFFF" fill-opacity="1.000000" fill-rule="nonzero"/>
</svg>
